# xmcd
#
# Track frame offsets:
#	150
#	15720
#	25565
#	39982
#	50430
#	60427
#	92835
#	106062
#	121572
#	143845
#	153470
#	168345
#
# Disc length: 2396 seconds
# Revision: 3
# Processed by: cddbd v1.5.2PL0 Copyright (c) Steve Scherf et al.
# Submitted via: dBpowerAMP V12.0
#
DISCID=85095a0c
DTITLE=Creedence Clearwater Revival - Creedence Country
DYEAR=1981
DGENRE=Pop/Rock
TTITLE0=Lookin' for a Reason
TTITLE1=Don't Look Now
TTITLE2=Lodi
TTITLE3=My Baby Left Me
TTITLE4=Hello Mary Lou
TTITLE5=Ramble Tamble
TTITLE6=Cotton Fields
TTITLE7=Before You Accuse Me
TTITLE8=Wrote a Song for Everyone
TTITLE9=Ooby Dooby
TTITLE10=Cross-Tie Walker
TTITLE11=Lookin' Out My Back Door
EXTD=
EXTT0=
EXTT1=
EXTT2=
EXTT3=
EXTT4=
EXTT5=
EXTT6=
EXTT7=
EXTT8=
EXTT9=
EXTT10=
EXTT11=
PLAYORDER=
